<svg width="20" height="19" viewBox="0 0 20 19" fill="none" xmlns="http://www.w3.org/2000/svg">
<path d="M5 5C4.45 5 3.97917 4.80417 3.5875 4.4125C3.19583 4.02083 3 3.55 3 3C3 2.45 3.19583 1.97917 3.5875 1.5875C3.97917 1.19583 4.45 1 5 1C5.55 1 6.02083 1.19583 6.4125 1.5875C6.80417 1.97917 7 2.45 7 3C7 3.55 6.80417 4.02083 6.4125 4.4125C6.02083 4.80417 5.55 5 5 5ZM2 19C1.45 19 0.979167 18.8042 0.5875 18.4125C0.195833 18.0208 0 17.55 0 17V9H3V8.25C3 7.61667 3.21667 7.08333 3.65 6.65C4.08333 6.21667 4.61667 6 5.25 6C5.58333 6 5.89167 6.06667 6.175 6.2C6.45833 6.33333 6.71667 6.51667 6.95 6.75L8.35 8.3C8.46667 8.43333 8.59167 8.55833 8.725 8.675C8.85833 8.79167 9 8.9 9.15 9H20V17C20 17.55 19.8042 18.0208 19.4125 18.4125C19.0208 18.8042 18.55 19 18 19H2ZM16 7L16.1 6.4C16.1833 5.98333 16.1542 5.57917 16.0125 5.1875C15.8708 4.79583 15.65 4.45 15.35 4.15C14.8667 3.66667 14.5083 3.10417 14.275 2.4625C14.0417 1.82083 13.9667 1.15 14.05 0.45L14.1 0H16L15.9 0.6C15.8333 1 15.8625 1.39583 15.9875 1.7875C16.1125 2.17917 16.3167 2.51667 16.6 2.8C17.1 3.3 17.4708 3.875 17.7125 4.525C17.9542 5.175 18.0333 5.85 17.95 6.55L17.9 7H16ZM12 7L12.1 6.4C12.1833 5.98333 12.1542 5.57917 12.0125 5.1875C11.8708 4.79583 11.65 4.45 11.35 4.15C10.8667 3.66667 10.5083 3.10417 10.275 2.4625C10.0417 1.82083 9.96667 1.15 10.05 0.45L10.1 0H12L11.9 0.6C11.8167 1 11.8417 1.39583 11.975 1.7875C12.1083 2.17917 12.3167 2.51667 12.6 2.8C13.1 3.3 13.4708 3.875 13.7125 4.525C13.9542 5.175 14.0333 5.85 13.95 6.55L13.9 7H12ZM15 17H17V11H15V17ZM11 17H13V11H11V17ZM7 17H9V11H7V17ZM3 17H5V11H3V17Z" fill="#136DEC"/>
</svg>
