<svg width="40" height="40" viewBox="0 0 40 40" fill="none" xmlns="http://www.w3.org/2000/svg">
<rect width="40" height="40" rx="20" fill="#136DEC" fill-opacity="0.1"/>
<path d="M10.8334 26.6667V24.3334C10.8334 23.8612 10.9549 23.4271 11.198 23.0313C11.441 22.6355 11.7639 22.3334 12.1667 22.125C13.0278 21.6945 13.9028 21.3716 14.7917 21.1563C15.6806 20.941 16.5834 20.8334 17.5 20.8334C18.4167 20.8334 19.3195 20.941 20.2084 21.1563C21.0973 21.3716 21.9723 21.6945 22.8334 22.125C23.2362 22.3334 23.5591 22.6355 23.8021 23.0313C24.0452 23.4271 24.1667 23.8612 24.1667 24.3334V26.6667H10.8334ZM25.8334 26.6667V24.1667C25.8334 23.5556 25.6632 22.9688 25.323 22.4063C24.9827 21.8438 24.5 21.3612 23.875 20.9584C24.5834 21.0417 25.25 21.1841 25.875 21.3855C26.5 21.5868 27.0834 21.8334 27.625 22.125C28.125 22.4028 28.507 22.7118 28.7709 23.0521C29.0348 23.3924 29.1667 23.7639 29.1667 24.1667V26.6667H25.8334ZM17.5 20C16.5834 20 15.7987 19.6737 15.1459 19.0209C14.4931 18.3681 14.1667 17.5834 14.1667 16.6667C14.1667 15.75 14.4931 14.9653 15.1459 14.3125C15.7987 13.6598 16.5834 13.3334 17.5 13.3334C18.4167 13.3334 19.2014 13.6598 19.8542 14.3125C20.507 14.9653 20.8334 15.75 20.8334 16.6667C20.8334 17.5834 20.507 18.3681 19.8542 19.0209C19.2014 19.6737 18.4167 20 17.5 20ZM25.8334 16.6667C25.8334 17.5834 25.507 18.3681 24.8542 19.0209C24.2014 19.6737 23.4167 20 22.5 20C22.3473 20 22.1528 19.9827 21.9167 19.948C21.6806 19.9132 21.4862 19.875 21.3334 19.8334C21.7084 19.3889 21.9966 18.8959 22.198 18.3542C22.3993 17.8125 22.5 17.25 22.5 16.6667C22.5 16.0834 22.3993 15.5209 22.198 14.9792C21.9966 14.4375 21.7084 13.9445 21.3334 13.5C21.5278 13.4306 21.7223 13.3855 21.9167 13.3646C22.1112 13.3438 22.3056 13.3334 22.5 13.3334C23.4167 13.3334 24.2014 13.6598 24.8542 14.3125C25.507 14.9653 25.8334 15.75 25.8334 16.6667ZM12.5 25H22.5V24.3334C22.5 24.1806 22.4618 24.0417 22.3855 23.9167C22.3091 23.7917 22.2084 23.6945 22.0834 23.625C21.3334 23.25 20.5764 22.9688 19.8125 22.7813C19.0487 22.5938 18.2778 22.5 17.5 22.5C16.7223 22.5 15.9514 22.5938 15.1875 22.7813C14.4237 22.9688 13.6667 23.25 12.9167 23.625C12.7917 23.6945 12.691 23.7917 12.6146 23.9167C12.5382 24.0417 12.5 24.1806 12.5 24.3334V25ZM17.5 18.3334C17.9584 18.3334 18.3507 18.1702 18.6771 17.8438C19.0035 17.5174 19.1667 17.125 19.1667 16.6667C19.1667 16.2084 19.0035 15.816 18.6771 15.4896C18.3507 15.1632 17.9584 15 17.5 15C17.0417 15 16.6493 15.1632 16.323 15.4896C15.9966 15.816 15.8334 16.2084 15.8334 16.6667C15.8334 17.125 15.9966 17.5174 16.323 17.8438C16.6493 18.1702 17.0417 18.3334 17.5 18.3334Z" fill="#136DEC"/>
</svg>
