<svg width="40" height="40" viewBox="0 0 40 40" fill="none" xmlns="http://www.w3.org/2000/svg">
<rect width="40" height="40" rx="20" fill="#136DEC" fill-opacity="0.1"/>
<path d="M12.5 27.0834C12.0417 27.0834 11.6493 26.9202 11.323 26.5938C10.9966 26.2674 10.8334 25.875 10.8334 25.4167C10.8334 24.9584 10.9966 24.566 11.323 24.2396C11.6493 23.9132 12.0417 23.75 12.5 23.75C12.5834 23.75 12.6563 23.75 12.7188 23.75C12.7813 23.75 12.8473 23.7639 12.9167 23.7917L16.7084 20C16.6806 19.9306 16.6667 19.8646 16.6667 19.8021C16.6667 19.7396 16.6667 19.6667 16.6667 19.5834C16.6667 19.125 16.8299 18.7327 17.1563 18.4063C17.4827 18.0799 17.875 17.9167 18.3334 17.9167C18.7917 17.9167 19.1841 18.0799 19.5105 18.4063C19.8368 18.7327 20 19.125 20 19.5834C20 19.6111 19.9862 19.75 19.9584 20L22.0834 22.125C22.1528 22.0972 22.2188 22.0834 22.2813 22.0834C22.3438 22.0834 22.4167 22.0834 22.5 22.0834C22.5834 22.0834 22.6563 22.0834 22.7188 22.0834C22.7813 22.0834 22.8473 22.0972 22.9167 22.125L25.875 19.1667C25.8473 19.0972 25.8334 19.0313 25.8334 18.9688C25.8334 18.9063 25.8334 18.8334 25.8334 18.75C25.8334 18.2917 25.9966 17.8993 26.323 17.5729C26.6493 17.2465 27.0417 17.0834 27.5 17.0834C27.9584 17.0834 28.3507 17.2465 28.6771 17.5729C29.0035 17.8993 29.1667 18.2917 29.1667 18.75C29.1667 19.2084 29.0035 19.6007 28.6771 19.9271C28.3507 20.2535 27.9584 20.4167 27.5 20.4167C27.4167 20.4167 27.3438 20.4167 27.2813 20.4167C27.2188 20.4167 27.1528 20.4028 27.0834 20.375L24.125 23.3334C24.1528 23.4028 24.1667 23.4688 24.1667 23.5313C24.1667 23.5938 24.1667 23.6667 24.1667 23.75C24.1667 24.2084 24.0035 24.6007 23.6771 24.9271C23.3507 25.2535 22.9584 25.4167 22.5 25.4167C22.0417 25.4167 21.6493 25.2535 21.323 24.9271C20.9966 24.6007 20.8334 24.2084 20.8334 23.75C20.8334 23.6667 20.8334 23.5938 20.8334 23.5313C20.8334 23.4688 20.8473 23.4028 20.875 23.3334L18.75 21.2084C18.6806 21.2361 18.6146 21.25 18.5521 21.25C18.4896 21.25 18.4167 21.25 18.3334 21.25C18.3056 21.25 18.1667 21.2361 17.9167 21.2084L14.125 25C14.1528 25.0695 14.1667 25.1354 14.1667 25.1979C14.1667 25.2604 14.1667 25.3334 14.1667 25.4167C14.1667 25.875 14.0035 26.2674 13.6771 26.5938C13.3507 26.9202 12.9584 27.0834 12.5 27.0834ZM13.3334 18.7292L12.8125 17.6042L11.6875 17.0834L12.8125 16.5625L13.3334 15.4375L13.8542 16.5625L14.9792 17.0834L13.8542 17.6042L13.3334 18.7292ZM22.5 17.9167L21.7084 16.2084L20 15.4167L21.7084 14.625L22.5 12.9167L23.2917 14.625L25 15.4167L23.2917 16.2084L22.5 17.9167Z" fill="#136DEC"/>
</svg>
