<svg width="40" height="40" viewBox="0 0 40 40" fill="none" xmlns="http://www.w3.org/2000/svg">
<rect width="40" height="40" rx="20" fill="#136DEC" fill-opacity="0.1"/>
<path d="M20 20C20.4584 20 20.8507 19.8368 21.1771 19.5104C21.5035 19.184 21.6667 18.7916 21.6667 18.3333C21.6667 17.875 21.5035 17.4826 21.1771 17.1562C20.8507 16.8298 20.4584 16.6666 20 16.6666C19.5417 16.6666 19.1493 16.8298 18.823 17.1562C18.4966 17.4826 18.3334 17.875 18.3334 18.3333C18.3334 18.7916 18.4966 19.184 18.823 19.5104C19.1493 19.8368 19.5417 20 20 20ZM20 26.125C21.6945 24.5694 22.9514 23.1562 23.7709 21.8854C24.5903 20.6145 25 19.4861 25 18.5C25 16.9861 24.5174 15.7465 23.5521 14.7812C22.5868 13.8159 21.4028 13.3333 20 13.3333C18.5973 13.3333 17.4132 13.8159 16.448 14.7812C15.4827 15.7465 15 16.9861 15 18.5C15 19.4861 15.4098 20.6145 16.2292 21.8854C17.0487 23.1562 18.3056 24.5694 20 26.125ZM20 28.3333C17.7639 26.4305 16.0938 24.6632 14.9896 23.0312C13.8855 21.3993 13.3334 19.8888 13.3334 18.5C13.3334 16.4166 14.0035 14.7569 15.3438 13.5208C16.6841 12.2847 18.2362 11.6666 20 11.6666C21.7639 11.6666 23.316 12.2847 24.6563 13.5208C25.9966 14.7569 26.6667 16.4166 26.6667 18.5C26.6667 19.8888 26.1146 21.3993 25.0105 23.0312C23.9063 24.6632 22.2362 26.4305 20 28.3333Z" fill="#136DEC"/>
</svg>
