<svg width="20" height="16" viewBox="0 0 20 16" fill="none" xmlns="http://www.w3.org/2000/svg">
<path d="M2 16C1.45 16 0.979167 15.8042 0.5875 15.4125C0.195833 15.0208 0 14.55 0 14V2C0 1.45 0.195833 0.979167 0.5875 0.5875C0.979167 0.195833 1.45 0 2 0H18C18.55 0 19.0208 0.195833 19.4125 0.5875C19.8042 0.979167 20 1.45 20 2V14C20 14.55 19.8042 15.0208 19.4125 15.4125C19.0208 15.8042 18.55 16 18 16H2ZM2 14H12V2H2V14ZM14 14H18V2H14V14ZM15 5H17V3H15V5ZM16 9C16.2833 9 16.5208 8.90417 16.7125 8.7125C16.9042 8.52083 17 8.28333 17 8C17 7.71667 16.9042 7.47917 16.7125 7.2875C16.5208 7.09583 16.2833 7 16 7C15.7167 7 15.4792 7.09583 15.2875 7.2875C15.0958 7.47917 15 7.71667 15 8C15 8.28333 15.0958 8.52083 15.2875 8.7125C15.4792 8.90417 15.7167 9 16 9ZM16 13C16.2833 13 16.5208 12.9042 16.7125 12.7125C16.9042 12.5208 17 12.2833 17 12C17 11.7167 16.9042 11.4792 16.7125 11.2875C16.5208 11.0958 16.2833 11 16 11C15.7167 11 15.4792 11.0958 15.2875 11.2875C15.0958 11.4792 15 11.7167 15 12C15 12.2833 15.0958 12.5208 15.2875 12.7125C15.4792 12.9042 15.7167 13 16 13ZM8.25 12C7.85 12 7.50417 11.925 7.2125 11.775C6.92083 11.625 6.66667 11.4833 6.45 11.35C6.28333 11.2333 6.15 11.1458 6.05 11.0875C5.95 11.0292 5.85 11 5.75 11C5.56667 11 5.38333 11.075 5.2 11.225C5.01667 11.375 4.88333 11.5 4.8 11.6L3.375 10.2C3.55833 10 3.85417 9.75 4.2625 9.45C4.67083 9.15 5.16667 9 5.75 9C6.15 9 6.49583 9.07917 6.7875 9.2375C7.07917 9.39583 7.33333 9.54167 7.55 9.675C7.7 9.775 7.83333 9.85417 7.95 9.9125C8.06667 9.97083 8.16667 10 8.25 10C8.43333 10 8.61667 9.925 8.8 9.775C8.98333 9.625 9.11667 9.5 9.2 9.4L10.625 10.8C10.4417 11 10.1458 11.25 9.7375 11.55C9.32917 11.85 8.83333 12 8.25 12ZM8.25 7C7.85 7 7.50417 6.925 7.2125 6.775C6.92083 6.625 6.66667 6.48333 6.45 6.35C6.28333 6.23333 6.15 6.14583 6.05 6.0875C5.95 6.02917 5.85 6 5.75 6C5.56667 6 5.38333 6.075 5.2 6.225C5.01667 6.375 4.88333 6.5 4.8 6.6L3.375 5.2C3.55833 5 3.85417 4.75 4.2625 4.45C4.67083 4.15 5.16667 4 5.75 4C6.15 4 6.49583 4.07917 6.7875 4.2375C7.07917 4.39583 7.33333 4.54167 7.55 4.675C7.7 4.775 7.83333 4.85417 7.95 4.9125C8.06667 4.97083 8.16667 5 8.25 5C8.43333 5 8.61667 4.925 8.8 4.775C8.98333 4.625 9.11667 4.5 9.2 4.4L10.625 5.8C10.4417 6 10.1458 6.25 9.7375 6.55C9.32917 6.85 8.83333 7 8.25 7ZM14 14V2V14Z" fill="#136DEC"/>
</svg>
