<svg width="18" height="18" viewBox="0 0 18 18" fill="none" xmlns="http://www.w3.org/2000/svg">
<path d="M9 15C7.33333 15 5.91667 14.4167 4.75 13.25C3.58333 12.0833 3 10.6667 3 9C3 7.33333 3.58333 5.91667 4.75 4.75C5.91667 3.58333 7.33333 3 9 3C10.6667 3 12.0833 3.58333 13.25 4.75C14.4167 5.91667 15 7.33333 15 9C15 10.6667 14.4167 12.0833 13.25 13.25C12.0833 14.4167 10.6667 15 9 15ZM8.25 12.925V10.8L6.75 12.3C6.98333 12.45 7.22083 12.5792 7.4625 12.6875C7.70417 12.7958 7.96667 12.875 8.25 12.925ZM9.75 12.925C10.0167 12.875 10.275 12.7958 10.525 12.6875C10.775 12.5792 11.0167 12.45 11.25 12.3L9.75 10.8V12.925ZM12.3 11.25C12.45 11.0167 12.5792 10.775 12.6875 10.525C12.7958 10.275 12.875 10.0167 12.925 9.75H10.8L12.3 11.25ZM10.8 8.25H12.925C12.875 7.98333 12.7958 7.725 12.6875 7.475C12.5792 7.225 12.45 6.98333 12.3 6.75L10.8 8.25ZM9.75 7.2L11.25 5.7C11.0167 5.55 10.7792 5.42083 10.5375 5.3125C10.2958 5.20417 10.0333 5.125 9.75 5.075V7.2ZM9 10C9.28333 10 9.52083 9.90417 9.7125 9.7125C9.90417 9.52083 10 9.28333 10 9C10 8.71667 9.90417 8.47917 9.7125 8.2875C9.52083 8.09583 9.28333 8 9 8C8.71667 8 8.47917 8.09583 8.2875 8.2875C8.09583 8.47917 8 8.71667 8 9C8 9.28333 8.09583 9.52083 8.2875 9.7125C8.47917 9.90417 8.71667 10 9 10ZM8.25 7.2V5.075C7.98333 5.125 7.725 5.20417 7.475 5.3125C7.225 5.42083 6.98333 5.55 6.75 5.7L8.25 7.2ZM5.075 8.25H7.2L5.7 6.75C5.55 6.98333 5.42083 7.225 5.3125 7.475C5.20417 7.725 5.125 7.98333 5.075 8.25ZM5.7 11.25L7.2 9.75H5.075C5.125 10.0167 5.20417 10.275 5.3125 10.525C5.42083 10.775 5.55 11.0167 5.7 11.25ZM2 18C1.45 18 0.979167 17.8042 0.5875 17.4125C0.195833 17.0208 0 16.55 0 16V2C0 1.45 0.195833 0.979167 0.5875 0.5875C0.979167 0.195833 1.45 0 2 0H16C16.55 0 17.0208 0.195833 17.4125 0.5875C17.8042 0.979167 18 1.45 18 2V16C18 16.55 17.8042 17.0208 17.4125 17.4125C17.0208 17.8042 16.55 18 16 18H2ZM2 16H16V2H2V16ZM2 2V16V2Z" fill="#136DEC"/>
</svg>
