<svg width="40" height="40" viewBox="0 0 40 40" fill="none" xmlns="http://www.w3.org/2000/svg">
<rect width="40" height="40" rx="20" fill="#136DEC" fill-opacity="0.1"/>
<path d="M14.1667 27.5C13.7083 27.5 13.316 27.3368 12.9896 27.0104C12.6632 26.684 12.5 26.2917 12.5 25.8333V14.1667C12.5 13.7083 12.6632 13.316 12.9896 12.9896C13.316 12.6632 13.7083 12.5 14.1667 12.5H25.8333C26.2917 12.5 26.684 12.6632 27.0104 12.9896C27.3368 13.316 27.5 13.7083 27.5 14.1667V25.8333C27.5 26.2917 27.3368 26.684 27.0104 27.0104C26.684 27.3368 26.2917 27.5 25.8333 27.5H14.1667ZM14.1667 20V25.8333H25.8333V20H24.1667V24.1667H15.8333V20H14.1667ZM17.5 22.5H22.5V20H17.5V22.5ZM14.1667 18.3333H25.8333V14.1667H14.1667V18.3333ZM16.6667 16.6667C16.4306 16.6667 16.2326 16.5868 16.0729 16.4271C15.9132 16.2674 15.8333 16.0694 15.8333 15.8333C15.8333 15.5972 15.9132 15.3993 16.0729 15.2396C16.2326 15.0799 16.4306 15 16.6667 15C16.9028 15 17.1007 15.0799 17.2604 15.2396C17.4201 15.3993 17.5 15.5972 17.5 15.8333C17.5 16.0694 17.4201 16.2674 17.2604 16.4271C17.1007 16.5868 16.9028 16.6667 16.6667 16.6667ZM20 16.6667C19.7639 16.6667 19.566 16.5868 19.4062 16.4271C19.2465 16.2674 19.1667 16.0694 19.1667 15.8333C19.1667 15.5972 19.2465 15.3993 19.4062 15.2396C19.566 15.0799 19.7639 15 20 15C20.2361 15 20.434 15.0799 20.5938 15.2396C20.7535 15.3993 20.8333 15.5972 20.8333 15.8333C20.8333 16.0694 20.7535 16.2674 20.5938 16.4271C20.434 16.5868 20.2361 16.6667 20 16.6667ZM23.3333 16.6667C23.0972 16.6667 22.8993 16.5868 22.7396 16.4271C22.5799 16.2674 22.5 16.0694 22.5 15.8333C22.5 15.5972 22.5799 15.3993 22.7396 15.2396C22.8993 15.0799 23.0972 15 23.3333 15C23.5694 15 23.7674 15.0799 23.9271 15.2396C24.0868 15.3993 24.1667 15.5972 24.1667 15.8333C24.1667 16.0694 24.0868 16.2674 23.9271 16.4271C23.7674 16.5868 23.5694 16.6667 23.3333 16.6667Z" fill="#136DEC"/>
</svg>
