<svg width="106" height="106" viewBox="0 0 106 106" fill="none" xmlns="http://www.w3.org/2000/svg">
<rect x="4.80005" y="4.80005" width="96" height="96" rx="48" fill="#136DEC" fill-opacity="0.05"/>
<path d="M52.8 52.8C53.9 52.8 54.8417 52.4084 55.625 51.625C56.4084 50.8417 56.8 49.9 56.8 48.8C56.8 47.7 56.4084 46.7584 55.625 45.975C54.8417 45.1917 53.9 44.8 52.8 44.8C51.7 44.8 50.7584 45.1917 49.975 45.975C49.1917 46.7584 48.8 47.7 48.8 48.8C48.8 49.9 49.1917 50.8417 49.975 51.625C50.7584 52.4084 51.7 52.8 52.8 52.8ZM52.8 67.5C56.8667 63.7667 59.8834 60.375 61.85 57.325C63.8167 54.275 64.8 51.5667 64.8 49.2C64.8 45.5667 63.6417 42.5917 61.325 40.275C59.0084 37.9584 56.1667 36.8 52.8 36.8C49.4334 36.8 46.5917 37.9584 44.275 40.275C41.9584 42.5917 40.8 45.5667 40.8 49.2C40.8 51.5667 41.7834 54.275 43.75 57.325C45.7167 60.375 48.7334 63.7667 52.8 67.5ZM52.8 72.8C47.4334 68.2334 43.425 63.9917 40.775 60.075C38.125 56.1584 36.8 52.5334 36.8 49.2C36.8 44.2 38.4084 40.2167 41.625 37.25C44.8417 34.2834 48.5667 32.8 52.8 32.8C57.0334 32.8 60.7584 34.2834 63.975 37.25C67.1917 40.2167 68.8 44.2 68.8 49.2C68.8 52.5334 67.475 56.1584 64.825 60.075C62.175 63.9917 58.1667 68.2334 52.8 72.8Z" fill="#136DEC"/>
<rect width="105.6" height="105.6" rx="48" fill="#136DEC" fill-opacity="0.1"/>
</svg>
