<svg width="192" height="128" viewBox="0 0 192 128" fill="none" xmlns="http://www.w3.org/2000/svg">
<g clip-path="url(#clip0_1_3615)">
<rect width="192" height="128" rx="16" fill="#136DEC" fill-opacity="0.05"/>
<g opacity="0.1">
<path d="M66 99H81V69H111V99H126V54L96 31.5L66 54V99ZM56 109V49L96 19L136 49V109H101V79H91V109H56Z" fill="#111418"/>
</g>
<path d="M60.75 60C59.1 60 57.6875 59.4125 56.5125 58.2375C55.3375 57.0625 54.75 55.65 54.75 54C54.75 52.35 55.3375 50.9375 56.5125 49.7625C57.6875 48.5875 59.1 48 60.75 48C62.4 48 63.8125 48.5875 64.9875 49.7625C66.1625 50.9375 66.75 52.35 66.75 54C66.75 55.65 66.1625 57.0625 64.9875 58.2375C63.8125 59.4125 62.4 60 60.75 60ZM48.75 72V67.8C48.75 66.95 48.9688 66.1687 49.4062 65.4562C49.8438 64.7437 50.425 64.2 51.15 63.825C52.7 63.05 54.275 62.4688 55.875 62.0813C57.475 61.6938 59.1 61.5 60.75 61.5C62.4 61.5 64.025 61.6938 65.625 62.0813C67.225 62.4688 68.8 63.05 70.35 63.825C71.075 64.2 71.6562 64.7437 72.0938 65.4562C72.5312 66.1687 72.75 66.95 72.75 67.8V72H48.75ZM51.75 69H69.75V67.8C69.75 67.525 69.6813 67.275 69.5438 67.05C69.4062 66.825 69.225 66.65 69 66.525C67.65 65.85 66.2875 65.3438 64.9125 65.0063C63.5375 64.6688 62.15 64.5 60.75 64.5C59.35 64.5 57.9625 64.6688 56.5875 65.0063C55.2125 65.3438 53.85 65.85 52.5 66.525C52.275 66.65 52.0938 66.825 51.9562 67.05C51.8187 67.275 51.75 67.525 51.75 67.8V69ZM60.75 57C61.575 57 62.2812 56.7062 62.8687 56.1187C63.4562 55.5312 63.75 54.825 63.75 54C63.75 53.175 63.4562 52.4688 62.8687 51.8812C62.2812 51.2937 61.575 51 60.75 51C59.925 51 59.2188 51.2937 58.6313 51.8812C58.0438 52.4688 57.75 53.175 57.75 54C57.75 54.825 58.0438 55.5312 58.6313 56.1187C59.2188 56.7062 59.925 57 60.75 57Z" fill="#136DEC"/>
<path d="M96.75 64C94.55 64 92.6667 63.2167 91.1 61.65C89.5333 60.0833 88.75 58.2 88.75 56C88.75 53.8 89.5333 51.9167 91.1 50.35C92.6667 48.7833 94.55 48 96.75 48C98.95 48 100.833 48.7833 102.4 50.35C103.967 51.9167 104.75 53.8 104.75 56C104.75 58.2 103.967 60.0833 102.4 61.65C100.833 63.2167 98.95 64 96.75 64ZM80.75 80V74.4C80.75 73.2667 81.0417 72.225 81.625 71.275C82.2083 70.325 82.9833 69.6 83.95 69.1C86.0167 68.0667 88.1167 67.2917 90.25 66.775C92.3833 66.2583 94.55 66 96.75 66C98.95 66 101.117 66.2583 103.25 66.775C105.383 67.2917 107.483 68.0667 109.55 69.1C110.517 69.6 111.292 70.325 111.875 71.275C112.458 72.225 112.75 73.2667 112.75 74.4V80H80.75ZM84.75 76H108.75V74.4C108.75 74.0333 108.658 73.7 108.475 73.4C108.292 73.1 108.05 72.8667 107.75 72.7C105.95 71.8 104.133 71.125 102.3 70.675C100.467 70.225 98.6167 70 96.75 70C94.8833 70 93.0333 70.225 91.2 70.675C89.3667 71.125 87.55 71.8 85.75 72.7C85.45 72.8667 85.2083 73.1 85.025 73.4C84.8417 73.7 84.75 74.0333 84.75 74.4V76ZM96.75 60C97.85 60 98.7917 59.6083 99.575 58.825C100.358 58.0417 100.75 57.1 100.75 56C100.75 54.9 100.358 53.9583 99.575 53.175C98.7917 52.3917 97.85 52 96.75 52C95.65 52 94.7083 52.3917 93.925 53.175C93.1417 53.9583 92.75 54.9 92.75 56C92.75 57.1 93.1417 58.0417 93.925 58.825C94.7083 59.6083 95.65 60 96.75 60Z" fill="#136DEC"/>
<path d="M135.125 58.9375C134.688 58.9375 134.318 58.7865 134.016 58.4844C133.714 58.1823 133.562 57.8125 133.562 57.375C133.562 56.9375 133.714 56.5677 134.016 56.2656C134.318 55.9635 134.688 55.8125 135.125 55.8125C135.562 55.8125 135.932 55.9635 136.234 56.2656C136.536 56.5677 136.688 56.9375 136.688 57.375C136.688 57.8125 136.536 58.1823 136.234 58.4844C135.932 58.7865 135.562 58.9375 135.125 58.9375ZM128.875 58.9375C128.438 58.9375 128.068 58.7865 127.766 58.4844C127.464 58.1823 127.312 57.8125 127.312 57.375C127.312 56.9375 127.464 56.5677 127.766 56.2656C128.068 55.9635 128.438 55.8125 128.875 55.8125C129.312 55.8125 129.682 55.9635 129.984 56.2656C130.286 56.5677 130.438 56.9375 130.438 57.375C130.438 57.8125 130.286 58.1823 129.984 58.4844C129.682 58.7865 129.312 58.9375 128.875 58.9375ZM132 65.5C130.75 65.5 129.62 65.1562 128.609 64.4688C127.599 63.7812 126.854 62.875 126.375 61.75H137.625C137.146 62.875 136.401 63.7812 135.391 64.4688C134.38 65.1562 133.25 65.5 132 65.5ZM132 70.5C130.438 70.5 128.974 70.2031 127.609 69.6094C126.245 69.0156 125.057 68.2135 124.047 67.2031C123.036 66.1927 122.234 65.0052 121.641 63.6406C121.047 62.276 120.75 60.8125 120.75 59.25C120.75 57.6875 121.047 56.224 121.641 54.8594C122.234 53.4948 123.036 52.3073 124.047 51.2969C125.057 50.2865 126.245 49.4844 127.609 48.8906C128.974 48.2969 130.438 48 132 48C133.562 48 135.026 48.2969 136.391 48.8906C137.755 49.4844 138.943 50.2865 139.953 51.2969C140.964 52.3073 141.766 53.4948 142.359 54.8594C142.953 56.224 143.25 57.6875 143.25 59.25C143.25 60.8125 142.953 62.276 142.359 63.6406C141.766 65.0052 140.964 66.1927 139.953 67.2031C138.943 68.2135 137.755 69.0156 136.391 69.6094C135.026 70.2031 133.562 70.5 132 70.5ZM132 68C134.417 68 136.479 67.1458 138.188 65.4375C139.896 63.7292 140.75 61.6667 140.75 59.25C140.75 56.8333 139.896 54.7708 138.188 53.0625C136.479 51.3542 134.417 50.5 132 50.5C131.875 50.5 131.75 50.5 131.625 50.5C131.5 50.5 131.375 50.5208 131.25 50.5625C131.125 50.6875 131.042 50.8229 131 50.9688C130.958 51.1146 130.938 51.2708 130.938 51.4375C130.938 51.875 131.089 52.2448 131.391 52.5469C131.693 52.849 132.062 53 132.5 53C132.688 53 132.859 52.9688 133.016 52.9062C133.172 52.8438 133.333 52.8125 133.5 52.8125C133.75 52.8125 133.958 52.9062 134.125 53.0938C134.292 53.2812 134.375 53.5 134.375 53.75C134.375 54.2292 134.151 54.5365 133.703 54.6719C133.255 54.8073 132.854 54.875 132.5 54.875C131.562 54.875 130.755 54.5365 130.078 53.8594C129.401 53.1823 129.062 52.375 129.062 51.4375C129.062 51.375 129.062 51.3125 129.062 51.25C129.062 51.1875 129.073 51.1042 129.094 51C127.365 51.625 125.958 52.6771 124.875 54.1562C123.792 55.6354 123.25 57.3333 123.25 59.25C123.25 61.6667 124.104 63.7292 125.812 65.4375C127.521 67.1458 129.583 68 132 68Z" fill="#136DEC"/>
</g>
<defs>
<clipPath id="clip0_1_3615">
<rect width="192" height="128" rx="16" fill="white"/>
</clipPath>
</defs>
</svg>
