<svg width="24" height="23" viewBox="0 0 24 23" fill="none" xmlns="http://www.w3.org/2000/svg">
<path d="M16.3333 10.5C16.6639 10.5 16.941 10.3882 17.1646 10.1646C17.3882 9.94097 17.5 9.66389 17.5 9.33333C17.5 9.00278 17.3882 8.72569 17.1646 8.50208C16.941 8.27847 16.6639 8.16667 16.3333 8.16667C16.0028 8.16667 15.7257 8.27847 15.5021 8.50208C15.2785 8.72569 15.1667 9.00278 15.1667 9.33333C15.1667 9.66389 15.2785 9.94097 15.5021 10.1646C15.7257 10.3882 16.0028 10.5 16.3333 10.5ZM7 8.16667H12.8333V5.83333H7V8.16667ZM2.91667 22.1667C2.25556 19.95 1.60417 17.7382 0.9625 15.5312C0.320833 13.3243 0 11.0639 0 8.75C0 6.96111 0.622222 5.44444 1.86667 4.2C3.11111 2.95556 4.62778 2.33333 6.41667 2.33333H12.25C12.8139 1.59444 13.4993 1.02083 14.3062 0.6125C15.1132 0.204167 15.9833 0 16.9167 0C17.4028 0 17.816 0.170139 18.1562 0.510417C18.4965 0.850694 18.6667 1.26389 18.6667 1.75C18.6667 1.86667 18.6521 1.98333 18.6229 2.1C18.5938 2.21667 18.5597 2.32361 18.5208 2.42083C18.4431 2.63472 18.3701 2.85347 18.3021 3.07708C18.234 3.30069 18.1806 3.52917 18.1417 3.7625L20.7958 6.41667H23.3333V14.5542L20.0375 15.6333L18.0833 22.1667H11.6667V19.8333H9.33333V22.1667H2.91667ZM4.66667 19.8333H7V17.5H14V19.8333H16.3333L18.1417 13.825L21 12.8625V8.75H19.8333L15.75 4.66667C15.75 4.27778 15.7743 3.90347 15.8229 3.54375C15.8715 3.18403 15.9444 2.81944 16.0417 2.45C15.4778 2.60556 14.9819 2.87292 14.5542 3.25208C14.1264 3.63125 13.8153 4.10278 13.6208 4.66667H6.41667C5.28889 4.66667 4.32639 5.06528 3.52917 5.8625C2.73194 6.65972 2.33333 7.62222 2.33333 8.75C2.33333 10.6556 2.59583 12.5174 3.12083 14.3354C3.64583 16.1535 4.16111 17.9861 4.66667 19.8333Z" fill="#136DEC"/>
</svg>
